<?xml version="1.0" encoding="UTF-8"?>
<svg id="Layer_1" xmlns="http://www.w3.org/2000/svg" version="1.1" viewBox="0 0 266.32 50">
  <!-- Copied from the provided logo.svg -->
  <g>
    <path d="M27.77,30.98c0,1.41-.29,2.64-.87,3.68-.58,1.04-1.38,1.91-2.39,2.6-1.01.69-2.19,1.21-3.55,1.57-1.35.35-2.78.53-4.28.53H.74V6.68h18.19c1.13,0,2.16.25,3.08.74.92.49,1.7,1.13,2.35,1.91s1.14,1.67,1.5,2.67c.35,1,.53,2.02.53,3.06,0,1.57-.39,3.04-1.17,4.42-.78,1.38-1.96,2.43-3.52,3.13,1.87.55,3.35,1.54,4.44,2.95,1.09,1.41,1.63,3.22,1.63,5.43Z" fill="#fff"/>
    <path d="M8.29,13.12v6.77h7.41c.83,0,1.57-.28,2.21-.83.64-.55.97-1.41.97-2.58,0-1.07-.28-1.9-.85-2.49-.57-.58-1.25-.88-2.05-.88h-7.69Z" fill="#fff"/>
    <path d="M20.08,29.47c0-1.01-.29-1.87-.88-2.58-.58-.71-1.32-1.06-2.21-1.06h-8.7v7.14h8.38c.98,0,1.8-.32,2.44-.97.64-.64.97-1.49.97-2.53Z" fill="#fff"/>
    <path d="M46.05,21.5c-1.78.03-3.39.32-4.83.88-1.44.55-2.49,1.38-3.13,2.49v14.5h-7.37V15.19h6.77v4.88c.83-1.63,1.89-2.9,3.2-3.82,1.3-.92,2.69-1.4,4.17-1.43h.74c.15,0,.31.02.46.05v6.63Z" fill="#fff"/>
    <path d="M54.75,39.82c-1.2,0-2.31-.19-3.34-.58-1.03-.38-1.91-.92-2.65-1.61-.74-.69-1.32-1.5-1.75-2.44-.43-.94-.64-1.96-.64-3.06,0-1.2.25-2.29.76-3.27.51-.98,1.22-1.83,2.14-2.53s2.01-1.26,3.27-1.66c1.26-.4,2.65-.6,4.19-.6,1.01,0,1.99.08,2.95.25.95.17,1.78.42,2.49.76v-1.1c0-2.79-1.61-4.19-4.83-4.19-1.32,0-2.58.22-3.78.67-1.2.45-2.46,1.11-3.78,2l-2.16-4.6c1.6-1.04,3.25-1.83,4.97-2.35,1.72-.52,3.54-.78,5.48-.78,3.65,0,6.48.86,8.47,2.58,1.99,1.72,2.99,4.24,2.99,7.55v6.22c0,.74.11,1.25.35,1.54.23.29.64.47,1.22.53v6.22c-.65.15-1.23.25-1.75.3-.52.05-1,.07-1.43.07-1.38,0-2.42-.27-3.13-.81-.71-.54-1.15-1.3-1.34-2.28l-.14-1.1c-1.07,1.38-2.36,2.44-3.84,3.18-1.49.74-3.06,1.1-4.72,1.1Z" fill="#fff"/>
    <path d="M56.91,34.53c.8,0,1.57-.14,2.33-.41.75-.28,1.37-.64,1.86-1.1.71-.55,1.06-1.14,1.06-1.75v-2.3c-.64-.25-1.34-.44-2.09-.58-.75-.14-1.45-.21-2.09-.21-1.35,0-2.46.31-3.34.92-.88.61-1.31,1.41-1.31,2.39,0,.89.34,1.62,1.01,2.19.67.57,1.53.85,2.58.85Z" fill="#fff"/>
    <path d="M97.25,39.36h-7.37v-13.58c0-1.6-.3-2.75-.9-3.48-.6-.72-1.39-1.08-2.37-1.08-.52,0-1.04.11-1.57.32-.52.22-1.03.51-1.52.9-.49.38-.93.84-1.31,1.36-.38.52-.68,1.09-.9,1.7v13.86h-7.37V15.19h6.63v4.05c.89-1.44,2.15-2.56,3.78-3.34,1.63-.78,3.5-1.17,5.62-1.17,1.57,0,2.82.28,3.78.85.95.57,1.69,1.3,2.21,2.21.52.91.87,1.9,1.04,2.97.17,1.07.25,2.12.25,3.13v15.47Z" fill="#fff"/>
    <path d="M111.24,39.82c-1.66,0-3.18-.31-4.58-.94-1.4-.63-2.6-1.51-3.61-2.65-1.01-1.14-1.8-2.46-2.37-3.98-.57-1.52-.85-3.18-.85-5s.26-3.39.78-4.93c.52-1.53,1.26-2.86,2.21-3.98.95-1.12,2.08-2,3.38-2.65,1.3-.65,2.74-.97,4.3-.97,1.69,0,3.21.4,4.58,1.2,1.37.8,2.42,1.87,3.15,3.22V5.75h7.37v25.32c0,.74.12,1.25.35,1.54.23.29.64.47,1.22.53v6.22c-.68.15-1.26.25-1.75.3-.49.05-.95.07-1.38.07-1.29,0-2.33-.27-3.13-.81-.8-.54-1.26-1.31-1.38-2.32l-.14-1.24c-.86,1.5-2.02,2.62-3.48,3.36-1.46.74-3.02,1.1-4.67,1.1Z" fill="#fff"/>
    <path d="M113.22,33.61c1.01,0,1.99-.3,2.92-.9.94-.6,1.65-1.42,2.14-2.46v-5.06c-.46-1.23-1.21-2.23-2.23-3.02-1.03-.78-2.09-1.17-3.2-1.17-.8,0-1.53.18-2.19.53-.66.35-1.24.82-1.73,1.4-.49.58-.87,1.26-1.13,2.03-.26.77-.39,1.58-.39,2.44s.15,1.72.44,2.49c.29.77.69,1.43,1.2,1.98.51.55,1.12.98,1.84,1.29.72.31,1.5.46,2.33.46Z" fill="#fff"/>
    <path d="M130.39,12.43v-6.68h7.37v6.68h-7.37ZM130.39,39.36V15.19h7.37v24.17h-7.37Z" fill="#fff"/>
    <path d="M165.2,39.36h-7.37v-13.58c0-1.6-.3-2.75-.9-3.48-.6-.72-1.39-1.08-2.37-1.08-.52,0-1.04.11-1.57.32-.52.22-1.03.51-1.52.9-.49.38-.93.84-1.31,1.36-.38.52-.68,1.09-.9,1.7v13.86h-7.37V15.19h6.63v4.05c.89-1.44,2.15-2.56,3.78-3.34,1.63-.78,3.5-1.17,5.62-1.17,1.57,0,2.82.28,3.78.85.95.57,1.69,1.3,2.21,2.21.52.91.87,1.9,1.04,2.97.17,1.07.25,2.12.25,3.13v15.47Z" fill="#fff"/>
    <path d="M178.55,39.46c-1.6,0-3.05-.32-4.37-.97-1.32-.64-2.45-1.52-3.38-2.62-.94-1.1-1.67-2.39-2.19-3.87-.52-1.47-.78-3.05-.78-4.74,0-1.78.28-3.43.83-4.95.55-1.52,1.32-2.84,2.3-3.96.98-1.12,2.16-2,3.55-2.65,1.38-.65,2.9-.97,4.56-.97,1.84,0,3.44.39,4.81,1.17,1.37.78,2.46,1.86,3.29,3.25v-3.96h6.4v22.51c0,1.84-.35,3.5-1.04,4.97-.69,1.47-1.65,2.72-2.88,3.75-1.23,1.03-2.7,1.82-4.42,2.37-1.72.55-3.61.83-5.66.83-2.61,0-4.83-.41-6.68-1.24-1.84-.83-3.45-2.03-4.83-3.59l3.96-4.01c.89,1.01,1.99,1.82,3.31,2.42,1.32.6,2.73.9,4.24.9.89,0,1.73-.12,2.53-.37.8-.25,1.5-.62,2.12-1.13.61-.51,1.1-1.17,1.45-1.98.35-.81.53-1.79.53-2.92v-2.35c-.74,1.35-1.8,2.37-3.18,3.06-1.38.69-2.87,1.04-4.47,1.04Z" fill="#fff"/>
    <path d="M181.08,33.61c1.14,0,2.15-.31,3.04-.94.89-.63,1.58-1.43,2.07-2.42v-5.06c-.49-1.29-1.24-2.31-2.26-3.06-1.01-.75-2.09-1.13-3.22-1.13-.8,0-1.53.18-2.19.53-.66.35-1.23.83-1.7,1.43-.48.6-.84,1.29-1.1,2.07s-.39,1.59-.39,2.42c0,.89.15,1.71.44,2.46.29.75.7,1.4,1.22,1.96.52.55,1.13.98,1.82,1.29.69.31,1.45.46,2.28.46Z" fill="#fff"/>
  </g>
  <g>
    <path d="M212.63,17.01h-4.17v10.79h-2v-10.79h-4.18v-1.75h10.34v1.75Z" fill="#ccc"/>
    <path d="M219.99,27.88c-.89,0-1.71-.18-2.44-.54-.74-.36-1.37-.84-1.9-1.43-.53-.59-.94-1.27-1.23-2.04-.29-.76-.43-1.55-.43-2.35s.15-1.64.46-2.4c.31-.76.73-1.44,1.26-2.03s1.17-1.06,1.91-1.4c.74-.35,1.54-.52,2.41-.52s1.71.19,2.44.56,1.37.86,1.89,1.46c.52.6.93,1.28,1.22,2.04.29.76.43,1.53.43,2.32,0,.84-.15,1.64-.45,2.4-.3.77-.72,1.44-1.26,2.02s-1.18,1.05-1.92,1.39c-.74.35-1.53.52-2.39.52ZM216,21.53c0,.59.09,1.16.28,1.71.19.55.46,1.04.8,1.46.35.42.77.76,1.26,1.02.49.25,1.05.38,1.66.38s1.2-.13,1.69-.4c.49-.26.9-.61,1.24-1.05.34-.44.6-.92.78-1.47.18-.54.27-1.09.27-1.66,0-.6-.09-1.17-.28-1.72-.19-.55-.46-1.03-.8-1.45-.35-.42-.77-.75-1.25-1.01s-1.03-.38-1.63-.38c-.64,0-1.2.13-1.69.4-.49.26-.91.61-1.25,1.03s-.6.91-.79,1.46c-.18.55-.27,1.1-.27,1.67Z" fill="#ccc"/>
    <path d="M229.12,27.79v-12.53h4.45c1.01,0,1.9.17,2.66.49.76.33,1.39.78,1.91,1.34s.9,1.23,1.16,1.99c.26.76.39,1.57.39,2.43,0,.95-.14,1.82-.43,2.59-.29.77-.7,1.43-1.23,1.98-.53.55-1.17.97-1.92,1.27-.75.3-1.59.45-2.52.45h-4.45ZM237.66,21.51c0-.66-.09-1.27-.27-1.82-.18-.55-.45-1.03-.8-1.42-.35-.39-.78-.7-1.29-.93-.51-.22-1.08-.34-1.73-.34h-2.47v9.04h2.47c.66,0,1.24-.11,1.76-.34s.94-.55,1.29-.95c.35-.41.61-.89.79-1.44.18-.55.26-1.15.26-1.8Z" fill="#ccc"/>
    <path d="M246.07,15.26h1.73l4.94,12.53h-2.08l-1.32-3.41h-4.84l-1.31,3.41h-2.1l4.98-12.53ZM248.94,22.92l-2.01-5.38-2.08,5.38h4.09Z" fill="#ccc"/>
    <path d="M254.8,15.26l3.46,6.28,3.5-6.28h2.17l-4.68,8.05v4.48h-1.98v-4.52l-4.64-8.01h2.17Z" fill="#ccc"/>
  </g>
</svg>